<svg width="14" height="14" viewBox="0 0 14 14" fill="none" xmlns="http://www.w3.org/2000/svg">
<path fill-rule="evenodd" clip-rule="evenodd" d="M7.49958 2.50141V3.00091C7.49308 3.32041 7.14158 3.57991 6.83458 3.47191C6.64108 3.40391 6.50508 3.20791 6.50058 3.00091V2.50141H5.00258C4.61358 2.48291 4.35908 1.98241 4.62508 1.67491C4.69808 1.59091 4.79858 1.53291 4.90808 1.51191C4.94958 1.50391 4.96058 1.50491 5.00258 1.50291H6.50058V1.00341C6.50258 0.921906 6.51008 0.895406 6.52558 0.847406C6.59208 0.646406 6.79658 0.503906 7.01008 0.503906C7.27458 0.514406 7.49358 0.713906 7.49958 1.00341V1.50291H10.4956V1.00341C10.4976 0.921906 10.5051 0.895406 10.5206 0.847406C10.5871 0.646406 10.7916 0.503906 11.0051 0.503906C11.2696 0.514406 11.4886 0.713906 11.4946 1.00341V1.50291H11.9956C12.0131 1.50291 12.0131 1.50291 12.0311 1.50341C12.7961 1.52691 13.4771 2.18541 13.4921 2.98241C13.5101 5.98541 13.4921 8.98841 13.4921 11.9909C13.4871 12.7654 12.8296 13.4724 12.0126 13.4874C8.67658 13.5079 5.34058 13.4879 2.00508 13.4879C1.22608 13.4829 0.523576 12.8134 0.508576 12.0084C0.489576 9.00541 0.508076 6.00241 0.508076 2.99941C0.513076 2.21841 1.18908 1.50791 2.00508 1.50291H2.50558V1.00341C2.50758 0.921906 2.51508 0.895406 2.53058 0.847406C2.59708 0.646406 2.80158 0.503906 3.01508 0.503906C3.09608 0.507406 3.12308 0.515406 3.17058 0.532406C3.36408 0.600406 3.50058 0.796406 3.50458 1.00341V3.00091C3.49808 3.32041 3.14658 3.57991 2.83958 3.47191C2.64608 3.40391 2.51008 3.20791 2.50558 3.00091V2.50091C2.33708 2.50041 2.16858 2.50041 2.00008 2.50141C1.74208 2.50641 1.51208 2.73391 1.50708 2.99491C1.48858 5.99491 1.48858 8.99541 1.50708 11.9959C1.51208 12.2544 1.73908 12.4839 2.00008 12.4889C5.33358 12.5094 8.66708 12.5094 12.0001 12.4889C12.2586 12.4839 12.4881 12.2569 12.4931 11.9959C12.5116 8.99541 12.5116 5.99491 12.4931 2.99441C12.4886 2.73541 12.2646 2.50341 11.9921 2.50141H11.4946V3.00091C11.4871 3.36841 11.0041 3.63841 10.6906 3.39641C10.5696 3.30341 10.4986 3.15491 10.4956 3.00091V2.50141H7.49958ZM3.00508 10.4914C3.28058 10.4914 3.50458 10.7154 3.50458 10.9909C3.50458 11.2664 3.28058 11.4904 3.00508 11.4904C2.72958 11.4904 2.50558 11.2664 2.50558 10.9909C2.50558 10.7154 2.72958 10.4914 3.00508 10.4914ZM5.00258 10.4914C5.27808 10.4914 5.50208 10.7154 5.50208 10.9909C5.50208 11.2664 5.27808 11.4904 5.00258 11.4904C4.72708 11.4904 4.50308 11.2664 4.50308 10.9909C4.50308 10.7154 4.72708 10.4914 5.00258 10.4914ZM7.00008 10.4914C7.27558 10.4914 7.49958 10.7154 7.49958 10.9909C7.49958 11.2664 7.27558 11.4904 7.00008 11.4904C6.72458 11.4904 6.50058 11.2664 6.50058 10.9909C6.50058 10.7154 6.72458 10.4914 7.00008 10.4914ZM3.00508 8.49391C3.28058 8.49391 3.50458 8.71791 3.50458 8.99341C3.50458 9.26891 3.28058 9.49291 3.00508 9.49291C2.72958 9.49291 2.50558 9.26891 2.50558 8.99341C2.50558 8.71791 2.72958 8.49391 3.00508 8.49391ZM5.00258 8.49391C5.27808 8.49391 5.50208 8.71791 5.50208 8.99341C5.50208 9.26891 5.27808 9.49291 5.00258 9.49291C4.72708 9.49291 4.50308 9.26891 4.50308 8.99341C4.50308 8.71791 4.72708 8.49391 5.00258 8.49391ZM7.00008 8.49391C7.27558 8.49391 7.49958 8.71791 7.49958 8.99341C7.49958 9.26891 7.27558 9.49291 7.00008 9.49291C6.72458 9.49291 6.50058 9.26891 6.50058 8.99341C6.50058 8.71791 6.72458 8.49391 7.00008 8.49391ZM8.99758 8.49391C9.27308 8.49391 9.49708 8.71791 9.49708 8.99341C9.49708 9.26891 9.27308 9.49291 8.99758 9.49291C8.72208 9.49291 8.49808 9.26891 8.49808 8.99341C8.49808 8.71791 8.72208 8.49391 8.99758 8.49391ZM10.9951 8.49391C11.2706 8.49391 11.4946 8.71791 11.4946 8.99341C11.4946 9.26891 11.2706 9.49291 10.9951 9.49291C10.7196 9.49291 10.4956 9.26891 10.4956 8.99341C10.4956 8.71791 10.7196 8.49391 10.9951 8.49391ZM5.00258 6.49641C5.27808 6.49641 5.50208 6.72041 5.50208 6.99591C5.50208 7.27141 5.27808 7.49541 5.00258 7.49541C4.72708 7.49541 4.50308 7.27141 4.50308 6.99591C4.50308 6.72041 4.72708 6.49641 5.00258 6.49641ZM7.00008 6.49641C7.27558 6.49641 7.49958 6.72041 7.49958 6.99591C7.49958 7.27141 7.27558 7.49541 7.00008 7.49541C6.72458 7.49541 6.50058 7.27141 6.50058 6.99591C6.50058 6.72041 6.72458 6.49641 7.00008 6.49641ZM8.99758 6.49641C9.27308 6.49641 9.49708 6.72041 9.49708 6.99591C9.49708 7.27141 9.27308 7.49541 8.99758 7.49541C8.72208 7.49541 8.49808 7.27141 8.49808 6.99591C8.49808 6.72041 8.72208 6.49641 8.99758 6.49641ZM10.9951 6.49641C11.2706 6.49641 11.4946 6.72041 11.4946 6.99591C11.4946 7.27141 11.2706 7.49541 10.9951 7.49541C10.7196 7.49541 10.4956 7.27141 10.4956 6.99591C10.4956 6.72041 10.7196 6.49641 10.9951 6.49641Z" fill="#B0B1B3"/>
</svg>
