<svg width="18" height="32" viewBox="0 0 44 32" fill="none" xmlns="http://www.w3.org/2000/svg">
<path d="M14.4076 0.0319824C12.9461 0.0319824 8.53997 1.81945 7.74946 2.17667C6.95896 2.53389 6.08153 3.64901 5.08593 5.48945C4.08897 7.32988 3.28896 9.48136 1.98911 12.6461C0.690616 15.8108 0.387725 21.9121 0.431189 23.7743C0.474653 25.6364 0.687899 27.0911 2.59625 28.1927C4.50324 29.2929 6.19019 30.4447 7.96543 31.1374C9.74202 31.8301 10.9536 32.3286 11.7767 31.6358C12.5998 30.9431 13.1417 29.7302 13.1417 29.7302C13.1417 29.7302 13.9214 28.6477 12.449 27.9984C10.9767 27.3478 10.2405 26.8928 10.3043 26.2218C10.3695 25.5509 10.4768 25.1828 10.8449 25.2697C11.213 25.3566 12.0809 26.9146 15.4155 27.629C18.75 28.3434 22.0003 28.2361 22.0003 28.2361C22.0003 28.2361 25.2519 28.3448 28.5864 27.629C31.921 26.9146 32.7875 25.3566 33.1556 25.2697C33.5237 25.1828 33.631 25.5509 33.6962 26.2205C33.7614 26.8928 33.0252 27.3478 31.5529 27.9984C30.0805 28.6477 30.8602 29.7302 30.8602 29.7302C30.8602 29.7302 31.4021 30.9418 32.2252 31.6358C33.047 32.3286 34.2599 31.8301 36.0351 31.1374C37.8104 30.4447 39.4987 29.2942 41.4057 28.1927C43.314 27.0911 43.5272 25.6364 43.5707 23.7743C43.6142 21.9135 43.3113 15.8108 42.0114 12.6461C40.7129 9.48136 39.9116 7.32988 38.9146 5.48945C37.9204 3.64901 37.0416 2.53389 36.2524 2.17531C35.4619 1.81945 31.0544 0.0319824 29.5929 0.0319824C28.1314 0.0319824 27.6995 1.05067 27.6995 1.05067L27.1902 2.17667C27.1902 2.17667 23.7674 1.52606 22.0234 1.5247C20.2794 1.5247 16.8117 2.17667 16.8117 2.17667L16.3024 1.04931C16.3024 1.04931 15.8705 0.0319824 14.4076 0.0319824ZM14.5665 13.5439H14.6209C16.752 13.5439 18.4783 15.4088 18.4783 17.7083C18.4783 20.0092 16.752 21.8727 14.6209 21.8727C12.4898 21.8727 10.7634 20.0092 10.7634 17.7083C10.7621 15.4305 12.4572 13.5751 14.5665 13.5439ZM29.381 13.5439H29.4354C31.5447 13.5751 33.2385 15.4319 33.2385 17.7083C33.2385 20.0092 31.5121 21.8727 29.381 21.8727C27.2486 21.8727 25.5236 20.0092 25.5236 17.7083C25.5236 15.4088 27.2486 13.5439 29.381 13.5439Z" fill="white"/>
</svg>
