<svg width="24" height="24" viewBox="0 0 24 24" fill="none" xmlns="http://www.w3.org/2000/svg">
<path d="M8.47 16.7801C6.99258 16.7801 5.54833 16.342 4.31989 15.5212C3.09146 14.7004 2.13401 13.5337 1.56862 12.1687C1.00324 10.8038 0.855306 9.3018 1.14354 7.85277C1.43177 6.40373 2.14322 5.0727 3.18792 4.028C4.23261 2.98331 5.56364 2.27186 7.01268 1.98363C8.46172 1.69539 9.96368 1.84332 11.3286 2.40871C12.6936 2.9741 13.8603 3.93155 14.6811 5.15998C15.5019 6.38842 15.94 7.83266 15.94 9.31009C15.9374 11.2904 15.1495 13.1889 13.7492 14.5893C12.3488 15.9896 10.4504 16.7774 8.47 16.7801ZM8.47 3.35009C7.28332 3.35009 6.12328 3.70199 5.13658 4.36127C4.14989 5.02056 3.38085 5.95763 2.92673 7.05399C2.4726 8.15035 2.35378 9.35675 2.58529 10.5206C2.8168 11.6845 3.38825 12.7536 4.22736 13.5927C5.06648 14.4318 6.13558 15.0033 7.29946 15.2348C8.46335 15.4663 9.66975 15.3475 10.7661 14.8934C11.8625 14.4392 12.7995 13.6702 13.4588 12.6835C14.1181 11.6968 14.47 10.5368 14.47 9.35009C14.47 7.75879 13.8379 6.23267 12.7126 5.10745C11.5874 3.98223 10.0613 3.35009 8.47 3.35009Z" fill="white"/>
<path d="M4.94047 22.15C4.79231 22.14 4.65007 22.088 4.53047 22C4.42513 21.9323 4.33868 21.839 4.27921 21.7289C4.21975 21.6187 4.18921 21.4952 4.19047 21.37V15C4.19047 14.8011 4.26948 14.6103 4.41014 14.4697C4.55079 14.329 4.74155 14.25 4.94047 14.25C5.13938 14.25 5.33014 14.329 5.4708 14.4697C5.61145 14.6103 5.69047 14.8011 5.69047 15V20.21L8.41047 19C8.59214 18.9178 8.79903 18.9111 8.98563 18.9814C9.17223 19.0518 9.32325 19.1933 9.40547 19.375C9.48768 19.5567 9.49436 19.7636 9.42404 19.9502C9.35371 20.1368 9.21214 20.2878 9.03047 20.37L5.25047 22.07C5.15349 22.117 5.04809 22.1442 4.94047 22.15Z" fill="white"/>
<path d="M12.4697 22.15C12.3636 22.1495 12.2584 22.1292 12.1597 22.09L8.37974 20.39C8.19541 20.3038 8.05287 20.1479 7.98349 19.9566C7.94913 19.8619 7.93376 19.7614 7.93827 19.6607C7.94277 19.56 7.96706 19.4613 8.00974 19.37C8.05241 19.2787 8.11265 19.1968 8.18701 19.1288C8.26137 19.0608 8.34839 19.0081 8.44311 18.9738C8.63439 18.9044 8.84541 18.9138 9.02974 19L11.7497 20.22V15C11.7497 14.8011 11.8288 14.6103 11.9694 14.4697C12.1101 14.329 12.3008 14.25 12.4997 14.25C12.6986 14.25 12.8894 14.329 13.0301 14.4697C13.1707 14.6103 13.2497 14.8011 13.2497 15V21.4C13.251 21.5252 13.2205 21.6487 13.161 21.7589C13.1015 21.869 13.0151 21.9623 12.9097 22.03C12.7783 22.1129 12.6251 22.1547 12.4697 22.15Z" fill="white"/>
</svg>
