<svg width="24" height="24" viewBox="0 0 24 24" fill="none" xmlns="http://www.w3.org/2000/svg">
<path d="M12.0007 15.3202C11.344 15.3202 10.7021 15.1255 10.1562 14.7607C9.6102 14.3959 9.18467 13.8773 8.93339 13.2707C8.6821 12.664 8.61636 11.9965 8.74446 11.3525C8.87256 10.7085 9.18876 10.1169 9.65307 9.65258C10.1174 9.18827 10.7089 8.87207 11.353 8.74397C11.997 8.61587 12.6645 8.68161 13.2712 8.9329C13.8778 9.18418 14.3963 9.60971 14.7611 10.1557C15.126 10.7017 15.3207 11.3435 15.3207 12.0002C15.3207 12.8807 14.9709 13.7252 14.3483 14.3478C13.7256 14.9704 12.8812 15.3202 12.0007 15.3202ZM12.0007 10.1802C11.6407 10.1802 11.2888 10.2869 10.9895 10.4869C10.6902 10.6869 10.457 10.9711 10.3192 11.3037C10.1815 11.6363 10.1454 12.0022 10.2156 12.3552C10.2859 12.7083 10.4592 13.0326 10.7137 13.2871C10.9683 13.5416 11.2926 13.715 11.6456 13.7852C11.9986 13.8554 12.3646 13.8194 12.6971 13.6816C13.0297 13.5439 13.314 13.3106 13.5139 13.0113C13.7139 12.712 13.8207 12.3601 13.8207 12.0002C13.818 11.5183 13.6254 11.0569 13.2847 10.7161C12.9439 10.3754 12.4825 10.1828 12.0007 10.1802Z" fill="white"/>
<path d="M12 18.75C10.665 18.75 9.35994 18.3541 8.2499 17.6124C7.13987 16.8707 6.27471 15.8165 5.76382 14.5831C5.25292 13.3497 5.11925 11.9925 5.3797 10.6831C5.64015 9.37377 6.28303 8.17104 7.22703 7.22703C8.17104 6.28303 9.37377 5.64015 10.6831 5.3797C11.9925 5.11925 13.3497 5.25292 14.5831 5.76382C15.8165 6.27471 16.8707 7.13987 17.6124 8.2499C18.3541 9.35994 18.75 10.665 18.75 12C18.7474 13.7894 18.0354 15.5048 16.7701 16.7701C15.5048 18.0354 13.7894 18.7474 12 18.75ZM12 6.75C10.9617 6.75 9.94662 7.05791 9.08326 7.63479C8.2199 8.21167 7.547 9.0316 7.14964 9.99092C6.75228 10.9502 6.64831 12.0058 6.85088 13.0242C7.05345 14.0426 7.55347 14.9781 8.28769 15.7123C9.02192 16.4465 9.95738 16.9466 10.9758 17.1491C11.9942 17.3517 13.0498 17.2477 14.0091 16.8504C14.9684 16.453 15.7883 15.7801 16.3652 14.9167C16.9421 14.0534 17.25 13.0384 17.25 12C17.25 10.6076 16.6969 9.27226 15.7123 8.28769C14.7277 7.30313 13.3924 6.75 12 6.75Z" fill="white"/>
<path d="M12.0003 22.1801C9.9869 22.1801 8.0187 21.583 6.34461 20.4644C4.67052 19.3458 3.36572 17.7559 2.59522 15.8958C1.82472 14.0356 1.62313 11.9888 2.01592 10.0141C2.40872 8.03933 3.37827 6.22542 4.80197 4.80173C6.22567 3.37803 8.03957 2.40848 10.0143 2.01568C11.989 1.62288 14.0359 1.82448 15.896 2.59498C17.7562 3.36548 19.3461 4.67028 20.4647 6.34437C21.5833 8.01846 22.1803 9.98666 22.1803 12.0001C22.1803 13.3369 21.917 14.6607 21.4054 15.8958C20.8938 17.1309 20.144 18.2531 19.1987 19.1984C18.2534 20.1437 17.1311 20.8936 15.896 21.4052C14.6609 21.9168 13.3372 22.1801 12.0003 22.1801ZM12.0003 3.32007C10.2836 3.32007 8.60539 3.82915 7.17797 4.78292C5.75055 5.73669 4.63801 7.09232 3.98104 8.67838C3.32407 10.2644 3.15218 12.0097 3.4871 13.6935C3.82202 15.3772 4.64871 16.9238 5.86263 18.1378C7.07655 19.3517 8.62318 20.1784 10.3069 20.5133C11.9907 20.8482 13.7359 20.6763 15.322 20.0193C16.9081 19.3624 18.2637 18.2498 19.2175 16.8224C20.1712 15.395 20.6803 13.7168 20.6803 12.0001C20.6803 9.69799 19.7658 7.4902 18.138 5.86239C16.5102 4.23457 14.3024 3.32007 12.0003 3.32007Z" fill="white"/>
</svg>
