<svg width="17" height="15" viewBox="0 0 17 15" fill="none" xmlns="http://www.w3.org/2000/svg">
<path d="M7.68432 0.671424C7.99831 -0.218098 9.25628 -0.218097 9.57027 0.671425L10.7779 4.09266C10.919 4.49245 11.2969 4.7598 11.7209 4.7598H15.4409C16.4296 4.7598 16.8187 6.04144 15.9968 6.59104L13.1337 8.50585C12.7539 8.75987 12.5945 9.23905 12.7466 9.66995L13.8732 12.8614C14.1933 13.7683 13.1737 14.5601 12.3743 14.0255L9.1832 11.8914C8.84675 11.6664 8.40784 11.6664 8.07138 11.8914L4.88031 14.0255C4.08085 14.5601 3.06129 13.7683 3.38142 12.8614L4.50796 9.66995C4.66006 9.23905 4.50073 8.75987 4.12089 8.50585L1.25774 6.59104C0.435928 6.04144 0.824996 4.7598 1.81365 4.7598H5.53369C5.95766 4.7598 6.33554 4.49245 6.47667 4.09266L7.68432 0.671424Z" fill="#FF8D00"/>
</svg>
