<svg width="14" height="14" viewBox="0 0 14 14" fill="none" xmlns="http://www.w3.org/2000/svg">
<g clip-path="url(#clip0_679_3246)">
<path d="M6.99899 4.82853V1.44922C10.0447 1.44922 12.5507 3.95522 12.5507 7.00094C12.5507 10.0467 10.0447 12.5527 6.99899 12.5527C3.95327 12.5527 1.44727 10.0467 1.44727 7.00094C1.44727 5.52901 2.03237 4.11598 3.0732 3.07515" stroke="#FE702A" stroke-width="0.965517" stroke-miterlimit="10"/>
<path d="M4.24294 4.92751C4.15242 4.83699 4.10156 4.71422 4.10156 4.5862C4.10156 4.45819 4.15242 4.33541 4.24294 4.24489C4.33346 4.15437 4.45623 4.10352 4.58425 4.10352C4.71226 4.10352 4.83504 4.15437 4.92556 4.24489L7.68066 6.31737C7.77288 6.40644 7.84643 6.51298 7.89704 6.63078C7.94764 6.74857 7.97427 6.87527 7.97539 7.00347C7.9765 7.13167 7.95207 7.25881 7.90352 7.37747C7.85498 7.49613 7.78328 7.60393 7.69263 7.69458C7.60197 7.78524 7.49417 7.85693 7.37551 7.90548C7.25686 7.95402 7.12972 7.97845 7.00152 7.97734C6.87332 7.97623 6.74662 7.94959 6.62882 7.89899C6.51103 7.84839 6.40449 7.77483 6.31542 7.68262L4.24294 4.92751Z" fill="#FE702A"/>
</g>
<defs>
<clipPath id="clip0_679_3246">
<rect width="14" height="14" fill="white"/>
</clipPath>
</defs>
</svg>
