<svg width="20" height="17" viewBox="0 0 20 17" fill="none" xmlns="http://www.w3.org/2000/svg">
<path d="M20 1.92377C19.2639 2.25068 18.4731 2.47067 17.6432 2.5699C18.4908 2.06223 19.1408 1.25841 19.4469 0.299989C18.6547 0.769971 17.7762 1.1115 16.8409 1.2961C16.0925 0.498442 15.0263 0 13.8464 0C11.5803 0 9.74347 1.83762 9.74347 4.10292C9.74347 4.42445 9.78039 4.73828 9.84962 5.0375C6.43975 4.86674 3.41679 3.23295 1.39225 0.749971C1.03996 1.3561 0.83766 2.06069 0.83766 2.81374C0.83766 4.23676 1.56148 5.49287 2.66221 6.22822C1.98992 6.20668 1.35687 6.02208 0.803815 5.71516C0.803815 5.73286 0.803815 5.74901 0.803815 5.7667C0.803815 7.75509 2.21761 9.41348 4.09523 9.78962C3.75139 9.88347 3.38833 9.93346 3.01373 9.93346C2.74989 9.93346 2.49221 9.90731 2.24222 9.86039C2.76451 11.4903 4.27984 12.6772 6.07515 12.7103C4.67136 13.811 2.9022 14.4671 0.979193 14.4671C0.648437 14.4671 0.321526 14.4479 0 14.4094C1.81608 15.5732 3.97215 16.2525 6.28976 16.2525C13.8372 16.2525 17.9632 10.0004 17.9632 4.57829C17.9632 4.4006 17.9593 4.22368 17.9516 4.04754C18.7539 3.46833 19.45 2.74605 20 1.92377Z" fill="white"/>
</svg>
