<svg width="14" height="19" viewBox="0 0 14 19" fill="none" xmlns="http://www.w3.org/2000/svg">
<path d="M12.2917 12.8543V7.58343C12.2905 6.40904 11.8971 5.26868 11.174 4.34331C10.4509 3.41794 9.43948 2.76057 8.30021 2.47551C8.41248 2.25637 8.46658 2.01207 8.45732 1.76602C8.44806 1.51996 8.37575 1.28042 8.24733 1.07033C8.11891 0.860249 7.93868 0.686674 7.72392 0.566244C7.50916 0.445814 7.26706 0.382568 7.02083 0.382568C6.77461 0.382568 6.53251 0.445814 6.31775 0.566244C6.10298 0.686674 5.92275 0.860249 5.79433 1.07033C5.66591 1.28042 5.59361 1.51996 5.58435 1.76602C5.57509 2.01207 5.62919 2.25637 5.74146 2.47551C4.60219 2.76057 3.59075 3.41794 2.86764 4.34331C2.14453 5.26868 1.75118 6.40904 1.75 7.58343V12.8543C1.36875 12.8543 1.00312 13.0057 0.733534 13.2753C0.46395 13.5449 0.3125 13.9105 0.3125 14.2918C0.3125 14.673 0.46395 15.0386 0.733534 15.3082C1.00312 15.5778 1.36875 15.7293 1.75 15.7293H12.2917C12.6729 15.7293 13.0385 15.5778 13.3081 15.3082C13.5777 15.0386 13.7292 14.673 13.7292 14.2918C13.7292 13.9105 13.5777 13.5449 13.3081 13.2753C13.0385 13.0057 12.6729 12.8543 12.2917 12.8543ZM4.67292 16.6876C4.78289 17.2292 5.07672 17.7161 5.50463 18.0659C5.93253 18.4156 6.46818 18.6067 7.02083 18.6067C7.57348 18.6067 8.10914 18.4156 8.53704 18.0659C8.96494 17.7161 9.25877 17.2292 9.36875 16.6876H4.67292Z" fill="#757575"/>
</svg>
