<svg width="17" height="17" viewBox="0 0 17 17" fill="none" xmlns="http://www.w3.org/2000/svg">
<path d="M2.125 15.5834L1.7175 15.4627C1.67942 15.5913 1.70424 15.7303 1.78446 15.8377C1.86469 15.9451 1.99091 16.0084 2.125 16.0084V15.5834ZM14.875 15.5834V16.0084C15.0091 16.0084 15.1353 15.9451 15.2155 15.8377C15.2958 15.7303 15.3206 15.5913 15.2825 15.4627L14.875 15.5834ZM8.5 8.07508C6.77871 8.07508 5.38333 6.6797 5.38333 4.95842H4.53333C4.53333 7.14914 6.30927 8.92508 8.5 8.92508V8.07508ZM5.38333 4.95842C5.38333 3.23713 6.77871 1.84175 8.5 1.84175V0.991748C6.30927 0.991748 4.53333 2.76769 4.53333 4.95842H5.38333ZM2.5325 15.7041C3.336 12.9917 5.71597 11.0501 8.5 11.0501V10.2001C5.30114 10.2001 2.61663 12.4275 1.7175 15.4627L2.5325 15.7041ZM8.5 11.0501C11.284 11.0501 13.664 12.9917 14.4675 15.7041L15.2825 15.4627C14.3834 12.4275 11.6989 10.2001 8.5 10.2001V11.0501ZM2.125 16.0084H14.875V15.1584H2.125V16.0084ZM8.5 1.84175C9.06839 1.84175 9.60004 1.99351 10.058 2.25844L10.4836 1.52268C9.89977 1.18492 9.2218 0.991748 8.5 0.991748V1.84175Z" fill="#757575"/>
<path d="M16.9993 5.66667H9.91602M13.4577 2.125V9.20833" stroke="#757575" stroke-width="0.85"/>
</svg>
