<svg width="23" height="23" viewBox="0 0 23 23" fill="none" xmlns="http://www.w3.org/2000/svg">
<path d="M21.123 10.125H12.873V1.875C12.873 1.05 12.323 0.5 11.498 0.5C10.673 0.5 10.123 1.05 10.123 1.875V10.125H1.87305C1.04805 10.125 0.498047 10.675 0.498047 11.5C0.498047 12.325 1.04805 12.875 1.87305 12.875H10.123V21.125C10.123 21.95 10.673 22.5 11.498 22.5C12.323 22.5 12.873 21.95 12.873 21.125V12.875H21.123C21.948 12.875 22.498 12.325 22.498 11.5C22.498 10.675 21.948 10.125 21.123 10.125Z" fill="#474C52"/>
</svg>
